<svg id="katman_1" data-name="katman 1" xmlns="http://www.w3.org/2000/svg" viewBox="0 0 1375.22 375.09"><path d="M274.73,622.06V586.89h110c12.89,0,21.34-5.86,21.34-14.54,0-8.91-8.45-14.77-20.87-14.77H328c-33.29,0-55.57-19.69-55.57-49.47,0-30,21.8-50.17,54.63-50.17H438.86v35.17H328.43c-12.43,0-20.87,5.86-20.87,14.77,0,8.68,8.44,14.54,21.34,14.54h57.68c32.82,0,54.63,20.16,54.63,50.17,0,29.78-22.28,49.47-55.57,49.47Z" transform="translate(-272.39 -352.45)" fill="#045b9d"/><path d="M483.4,493.11V457.94h86.75C556.08,465.21,542,479.28,535,493.11ZM542,622.06V540c0-49.24,37.52-82.06,93.79-82.06v35.17c-35.17,0-58.61,11.72-58.61,46.89v82.06Z" transform="translate(-272.39 -352.45)" fill="#045b9d"/><path d="M796.4,556.64c25.65-3.83,43.11-18.6,46.19-41.22v0a293.84,293.84,0,0,1-49.88-33.32l-29.06-24.13h-80V622h35.16V557.59H754L799.9,622h43.16Zm-77.61-34.21V493.09h63.56c15.23,0,25.55,5.63,25.55,14.81,0,9.37-10.32,14.53-26,14.53Z" transform="translate(-272.39 -352.45)" fill="#045b9d"/><path d="M1398.16,572.83V457.94h35.16V622.06h-43.14l-82.06-114.89V622.06H1273V457.94h43.38Z" transform="translate(-272.39 -352.45)" fill="#045b9d"/><path d="M1612.44,586.89V557.58h-37.51V522.42h72.68v99.64h-73.39c-49.94,0-83.7-33.53-83.7-82.06V457.94h157.09v35.17H1525.69V540c0,27.43,19.69,46.89,49.47,46.89Z" transform="translate(-272.39 -352.45)" fill="#045b9d"/><path d="M1054.13,352.45c-89.88,0-165,63.25-183.3,147.68,8.79,2.74,18.28,5.49,28.39,8.17A158.47,158.47,0,1,1,896.05,540q0-2.22.06-4.41-15-5.08-28.89-11.18c-.41,5.14-.63,10.34-.63,15.59,0,103.58,84,187.54,187.54,187.54s187.55-84,187.55-187.54S1157.71,352.45,1054.13,352.45Z" transform="translate(-272.39 -352.45)" fill="#045b9d"/><path d="M965.56,429.53q11.87,4.16,23.44,7.19c-1,2.39-1.93,4.86-2.86,7.43C971.13,437,965.88,430,965.56,429.53Z" transform="translate(-272.39 -352.45)" fill="#fcc010"/><path d="M1099.46,459c-38.17,2.23-66-.72-86.14-5.52q2-5.32,4.33-10.49a331.3,331.3,0,0,0,77.14,3.86Q1097.33,452.79,1099.46,459Z" transform="translate(-272.39 -352.45)" fill="#fcc010"/><path d="M1171.45,450.13c-15.3,2.72-29.54,4.77-42.74,6.26q-2.06-6.78-4.33-12.89a267.82,267.82,0,0,0,34.55-7.68A148.07,148.07,0,0,1,1171.45,450.13Z" transform="translate(-272.39 -352.45)" fill="#fcc010"/><path d="M971.4,549.26A439.63,439.63,0,0,1,896.3,531q-14.47-5-28.63-11.21c-8.33-3.69-16.56-7.72-24.61-12.16a283.25,283.25,0,0,1-45.71-30.91c1.89.9,17.7,8.57,44,18.13,8.47,3.07,18,6.34,28.58,9.6,8.85,2.75,18.36,5.49,28.44,8.19a691.35,691.35,0,0,0,72.6,15.1C970.88,534.83,971,542,971.4,549.26Z" transform="translate(-272.39 -352.45)" fill="#199fda"/><path d="M1113.45,554.14c-33.69,2.41-74,3-116.13-1.48,0-6.95.2-14.13.63-21.43a585.38,585.38,0,0,0,115,1.41C1113.3,540,1113.47,547.18,1113.45,554.14Z" transform="translate(-272.39 -352.45)" fill="#199fda"/><path d="M1201.9,540c0,.73,0,1.47,0,2.21-8,1.71-30.8,6.21-62.67,9.62.49-7.5.7-14.93.59-22.29a504,504,0,0,0,60.37-12.24A145.93,145.93,0,0,1,1201.9,540Z" transform="translate(-272.39 -352.45)" fill="#199fda"/><path d="M989,638.34a235.32,235.32,0,0,0-37.16,8.28c-.74-.69-1.47-1.41-2.19-2.13a147.23,147.23,0,0,1-10.42-11.57,394.21,394.21,0,0,1,45.55-8.06Q986.75,631.58,989,638.34Z" transform="translate(-272.39 -352.45)" fill="#da222a"/><path d="M1106.54,632.69c-.51,3.13-1,6.14-1.56,9-26.53-4.52-62.83-8.36-100.12-5.17-.72-4.21-1.44-8.69-2.13-13.39C1033.84,620.84,1071.55,621.8,1106.54,632.69Z" transform="translate(-272.39 -352.45)" fill="#da222a"/><path d="M1146.53,650.87c-.62-.18-10.67-3.13-26.82-6.43q1.11-3.13,2.12-6.27A157.49,157.49,0,0,1,1146.53,650.87Z" transform="translate(-272.39 -352.45)" fill="#da222a"/><path d="M1134.74,552.29c-1.68,25.34-6.82,53.48-17,84.26-.77,2.32-1.56,4.67-2.4,7q-5.91,16.83-13.91,34.72c.24-.85,4-14.52,7.93-35.84q.75-4,1.45-8.4a502,502,0,0,0,7.08-80.26h0c0-7.1-.17-14.31-.55-21.57-1.31-24.74-5.2-50-13.2-73.59-1.4-4.12-2.92-8.17-4.58-12.18v0c-8.34-20.16-20.11-38.68-36.32-53.93a147.63,147.63,0,0,1,32.84,5.73,201.44,201.44,0,0,1,23.82,45.92c1.51,4,3,8.27,4.34,12.73a256.54,256.54,0,0,1,11.15,73.26C1135.46,537.27,1135.27,544.65,1134.74,552.29Z" transform="translate(-272.39 -352.45)" fill="#6cb646"/><path d="M1047.67,392.38c-15.11,14.18-26.37,31.18-34.6,49.73q-2.24,5-4.19,10.21c-9.35,24.84-13.84,51.92-15.38,78.41-.41,7.21-.6,14.37-.62,21.45a493.22,493.22,0,0,0,5.41,71.31c.69,4.73,1.42,9.23,2.15,13.47,4.2,24.45,8.65,40.42,8.9,41.35a433.12,433.12,0,0,1-15.91-40.56q-2.28-6.78-4.2-13.39A332,332,0,0,1,975.88,550q-.68-11.18-.47-21.57h0A252.58,252.58,0,0,1,990.2,446q1.53-4.22,3.14-8.13a194.7,194.7,0,0,1,22-40.48A146.51,146.51,0,0,1,1047.67,392.38Z" transform="translate(-272.39 -352.45)" fill="#fcc010"/><path d="M281.31,676.56v16.35h-8.92V651.28h25.4c9,0,15,5.06,15,12.73s-6.13,12.55-15.29,12.55Zm16-8.92c4,0,6.6-1.31,6.6-3.69s-2.62-3.75-6.49-3.75H281.31v7.44Z" transform="translate(-272.39 -352.45)" fill="#da222a"/><path d="M357,651.28h9l15.82,41.63h-8.93L369,682.51H354.08l-4,10.4h-8.91Zm8.62,22.31-4.11-10.71-4,10.71Z" transform="translate(-272.39 -352.45)" fill="#da222a"/><path d="M417.45,651.28h25.4c9,0,15,5.06,15,12.73,0,6.78-4.64,11.24-11.83,12.31l11.83,16.59H447l-11.66-16.35h-8.92v16.35h-8.92Zm8.92,16.36h16c4,0,6.6-1.31,6.6-3.69s-2.62-3.75-6.48-3.75H426.37Z" transform="translate(-272.39 -352.45)" fill="#da222a"/><path d="M491.82,660.2v-8.92h22a22.2,22.2,0,0,0-8.92,8.92Zm14.87,32.71V672.1c0-12.49,9.51-20.82,23.79-20.82v8.92c-8.93,0-14.87,3-14.87,11.9v20.81Z" transform="translate(-272.39 -352.45)" fill="#da222a"/><path d="M598.12,680.42V651.28h8.93v41.63H596.1l-20.82-29.14v29.14h-8.92V651.28h11Z" transform="translate(-272.39 -352.45)" fill="#da222a"/><path d="M666.54,692.91c-12.67,0-21.23-8.5-21.23-20.81V651.28h39.85v8.92H654.23v11.9c0,7,5,11.89,12.55,11.89h18.38v8.92Zm18.62-16.35H660.77v-8.92h24.39Z" transform="translate(-272.39 -352.45)" fill="#da222a"/><path d="M723.9,651.28h25.4c9,0,15.05,5.06,15.05,12.73,0,6.78-4.65,11.24-11.84,12.31l11.84,16.59h-11l-11.65-16.35h-8.93v16.35H723.9Zm8.92,16.36h16c4,0,6.6-1.31,6.6-3.69s-2.61-3.75-6.48-3.75H732.82Z" transform="translate(-272.39 -352.45)" fill="#da222a"/><path d="M800.83,692.91V684h27.89c3.27,0,5.42-1.48,5.42-3.69s-2.15-3.74-5.3-3.74H814.33c-8.45,0-14.1-5-14.1-12.55s5.54-12.73,13.86-12.73h28.37v8.92h-28c-3.15,0-5.3,1.49-5.3,3.75s2.15,3.69,5.41,3.69H829.2c8.32,0,13.85,5.11,13.85,12.72S837.4,692.91,829,692.91Z" transform="translate(-272.39 -352.45)" fill="#da222a"/></svg>